<svg width="24" height="24" viewBox="0 0 24 24" fill="none" xmlns="http://www.w3.org/2000/svg">
<path fill-rule="evenodd" clip-rule="evenodd" d="M12 22.3895C17.738 22.3895 22.3895 17.738 22.3895 12C22.3895 6.26202 17.738 1.61047 12 1.61047C6.26202 1.61047 1.61047 6.26202 1.61047 12C1.61047 17.738 6.26202 22.3895 12 22.3895ZM6.71259 12C6.71259 9.07984 9.07984 6.71258 12 6.71258C14.9202 6.71258 17.2874 9.07984 17.2874 12V13.0479C17.2874 13.4602 16.9532 13.7944 16.5409 13.7944C16.1286 13.7944 15.7944 13.4602 15.7944 13.0479V12C15.7944 9.90441 14.0956 8.20559 12 8.20559C9.90441 8.20559 8.2056 9.90441 8.2056 12C8.2056 14.0956 9.90441 15.7944 12 15.7944C12.9501 15.7944 13.8186 15.4452 14.4842 14.8682C14.9874 15.4363 15.7223 15.7944 16.5409 15.7944C18.0578 15.7944 19.2874 14.5648 19.2874 13.0479V12C19.2874 7.97527 16.0247 4.71258 12 4.71258C7.97527 4.71258 4.71259 7.97527 4.71259 12C4.71259 16.0247 7.97527 19.2874 12 19.2874H15.493V17.2874H12C9.07984 17.2874 6.71259 14.9202 6.71259 12ZM12 10.2056C12.991 10.2056 13.7944 11.009 13.7944 12C13.7944 12.991 12.991 13.7944 12 13.7944C11.009 13.7944 10.2056 12.991 10.2056 12C10.2056 11.009 11.009 10.2056 12 10.2056Z" fill="#7F838E"/>
</svg>
