<svg width="24" height="24" viewBox="0 0 24 24" fill="none" xmlns="http://www.w3.org/2000/svg">
<mask id="path-1-inside-1" fill="white">
<path d="M14 19C14 20.1046 13.1045 21 12 21C10.8954 21 9.99997 20.1046 9.99997 19C11.1045 19 14 19 14 19Z"/>
</mask>
<path d="M14 19H16V17H14V19ZM9.99997 19V17H7.99997V19H9.99997ZM12 19H12V23C14.2091 23 16 21.2091 16 19H12ZM12 19H12H7.99997C7.99997 21.2091 9.79083 23 12 23V19ZM9.99997 21C10.0021 21 10.0043 21 10.0065 21C10.0086 21 10.0108 21 10.013 21C10.0152 21 10.0174 21 10.0196 21C10.0218 21 10.024 21 10.0262 21C10.0284 21 10.0306 21 10.0328 21C10.0351 21 10.0373 21 10.0395 21C10.0418 21 10.044 21 10.0463 21C10.0485 21 10.0508 21 10.053 21C10.0553 21 10.0576 21 10.0599 21C10.0621 21 10.0644 21 10.0667 21C10.069 21 10.0713 21 10.0736 21C10.0759 21 10.0782 21 10.0805 21C10.0828 21 10.0852 21 10.0875 21C10.0898 21 10.0922 21 10.0945 21C10.0968 21 10.0992 21 10.1015 21C10.1039 21 10.1063 21 10.1086 21C10.111 21 10.1134 21 10.1157 21C10.1181 21 10.1205 21 10.1229 21C10.1253 21 10.1277 21 10.1301 21C10.1325 21 10.1349 21 10.1373 21C10.1397 21 10.1422 21 10.1446 21C10.147 21 10.1495 21 10.1519 21C10.1543 21 10.1568 21 10.1592 21C10.1617 21 10.1642 21 10.1666 21C10.1691 21 10.1716 21 10.174 21C10.1765 21 10.179 21 10.1815 21C10.184 21 10.1865 21 10.189 21C10.1915 21 10.194 21 10.1965 21C10.199 21 10.2015 21 10.204 21C10.2066 21 10.2091 21 10.2116 21C10.2142 21 10.2167 21 10.2193 21C10.2218 21 10.2244 21 10.2269 21C10.2295 21 10.232 21 10.2346 21C10.2372 21 10.2398 21 10.2423 21C10.2449 21 10.2475 21 10.2501 21C10.2527 21 10.2553 21 10.2579 21C10.2605 21 10.2631 21 10.2657 21C10.2683 21 10.271 21 10.2736 21C10.2762 21 10.2788 21 10.2815 21C10.2841 21 10.2868 21 10.2894 21C10.2921 21 10.2947 21 10.2974 21C10.3 21 10.3027 21 10.3054 21C10.308 21 10.3107 21 10.3134 21C10.3161 21 10.3188 21 10.3214 21C10.3241 21 10.3268 21 10.3295 21C10.3322 21 10.3349 21 10.3377 21C10.3404 21 10.3431 21 10.3458 21C10.3485 21 10.3513 21 10.354 21C10.3567 21 10.3595 21 10.3622 21C10.3649 21 10.3677 21 10.3704 21C10.3732 21 10.376 21 10.3787 21C10.3815 21 10.3843 21 10.387 21C10.3898 21 10.3926 21 10.3954 21C10.3981 21 10.4009 21 10.4037 21C10.4065 21 10.4093 21 10.4121 21C10.4149 21 10.4177 21 10.4205 21C10.4234 21 10.4262 21 10.429 21C10.4318 21 10.4347 21 10.4375 21C10.4403 21 10.4432 21 10.446 21C10.4488 21 10.4517 21 10.4545 21C10.4574 21 10.4602 21 10.4631 21C10.466 21 10.4688 21 10.4717 21C10.4746 21 10.4774 21 10.4803 21C10.4832 21 10.4861 21 10.489 21C10.4919 21 10.4948 21 10.4977 21C10.5006 21 10.5035 21 10.5064 21C10.5093 21 10.5122 21 10.5151 21C10.518 21 10.5209 21 10.5239 21C10.5268 21 10.5297 21 10.5326 21C10.5356 21 10.5385 21 10.5415 21C10.5444 21 10.5474 21 10.5503 21C10.5533 21 10.5562 21 10.5592 21C10.5621 21 10.5651 21 10.5681 21C10.571 21 10.574 21 10.577 21C10.58 21 10.5829 21 10.5859 21C10.5889 21 10.5919 21 10.5949 21C10.5979 21 10.6009 21 10.6039 21C10.6069 21 10.6099 21 10.6129 21C10.6159 21 10.6189 21 10.622 21C10.625 21 10.628 21 10.631 21C10.6341 21 10.6371 21 10.6401 21C10.6432 21 10.6462 21 10.6492 21C10.6523 21 10.6553 21 10.6584 21C10.6614 21 10.6645 21 10.6675 21C10.6706 21 10.6737 21 10.6767 21C10.6798 21 10.6829 21 10.6859 21C10.689 21 10.6921 21 10.6952 21C10.6983 21 10.7013 21 10.7044 21C10.7075 21 10.7106 21 10.7137 21C10.7168 21 10.7199 21 10.723 21C10.7261 21 10.7292 21 10.7323 21C10.7354 21 10.7386 21 10.7417 21C10.7448 21 10.7479 21 10.751 21C10.7542 21 10.7573 21 10.7604 21C10.7636 21 10.7667 21 10.7698 21C10.773 21 10.7761 21 10.7793 21C10.7824 21 10.7856 21 10.7887 21C10.7919 21 10.795 21 10.7982 21C10.8014 21 10.8045 21 10.8077 21C10.8109 21 10.814 21 10.8172 21C10.8204 21 10.8236 21 10.8267 21C10.8299 21 10.8331 21 10.8363 21C10.8395 21 10.8427 21 10.8459 21C10.8491 21 10.8523 21 10.8555 21C10.8587 21 10.8619 21 10.8651 21C10.8683 21 10.8715 21 10.8747 21C10.8779 21 10.8811 21 10.8844 21C10.8876 21 10.8908 21 10.894 21C10.8972 21 10.9005 21 10.9037 21C10.9069 21 10.9102 21 10.9134 21C10.9167 21 10.9199 21 10.9231 21C10.9264 21 10.9296 21 10.9329 21C10.9361 21 10.9394 21 10.9426 21C10.9459 21 10.9491 21 10.9524 21C10.9557 21 10.9589 21 10.9622 21C10.9655 21 10.9687 21 10.972 21C10.9753 21 10.9786 21 10.9818 21C10.9851 21 10.9884 21 10.9917 21C10.995 21 10.9982 21 11.0015 21C11.0048 21 11.0081 21 11.0114 21C11.0147 21 11.018 21 11.0213 21C11.0246 21 11.0279 21 11.0312 21C11.0345 21 11.0378 21 11.0411 21C11.0444 21 11.0478 21 11.0511 21C11.0544 21 11.0577 21 11.061 21C11.0643 21 11.0677 21 11.071 21C11.0743 21 11.0776 21 11.081 21C11.0843 21 11.0876 21 11.091 21C11.0943 21 11.0976 21 11.101 21C11.1043 21 11.1076 21 11.111 21C11.1143 21 11.1177 21 11.121 21C11.1244 21 11.1277 21 11.1311 21C11.1344 21 11.1378 21 11.1411 21C11.1445 21 11.1479 21 11.1512 21C11.1546 21 11.1579 21 11.1613 21C11.1647 21 11.168 21 11.1714 21C11.1748 21 11.1782 21 11.1815 21C11.1849 21 11.1883 21 11.1917 21C11.195 21 11.1984 21 11.2018 21C11.2052 21 11.2086 21 11.212 21C11.2153 21 11.2187 21 11.2221 21C11.2255 21 11.2289 21 11.2323 21C11.2357 21 11.2391 21 11.2425 21C11.2459 21 11.2493 21 11.2527 21C11.2561 21 11.2595 21 11.2629 21C11.2663 21 11.2697 21 11.2731 21C11.2765 21 11.2799 21 11.2833 21C11.2867 21 11.2902 21 11.2936 21C11.297 21 11.3004 21 11.3038 21C11.3072 21 11.3107 21 11.3141 21C11.3175 21 11.3209 21 11.3243 21C11.3278 21 11.3312 21 11.3346 21C11.338 21 11.3415 21 11.3449 21C11.3483 21 11.3518 21 11.3552 21C11.3586 21 11.3621 21 11.3655 21C11.3689 21 11.3724 21 11.3758 21C11.3793 21 11.3827 21 11.3861 21C11.3896 21 11.393 21 11.3965 21C11.3999 21 11.4034 21 11.4068 21C11.4103 21 11.4137 21 11.4172 21C11.4206 21 11.4241 21 11.4275 21C11.431 21 11.4344 21 11.4379 21C11.4413 21 11.4448 21 11.4482 21C11.4517 21 11.4551 21 11.4586 21C11.4621 21 11.4655 21 11.469 21C11.4725 21 11.4759 21 11.4794 21C11.4828 21 11.4863 21 11.4898 21C11.4932 21 11.4967 21 11.5002 21C11.5036 21 11.5071 21 11.5106 21C11.514 21 11.5175 21 11.521 21C11.5245 21 11.5279 21 11.5314 21C11.5349 21 11.5383 21 11.5418 21C11.5453 21 11.5488 21 11.5522 21C11.5557 21 11.5592 21 11.5627 21C11.5662 21 11.5696 21 11.5731 21C11.5766 21 11.5801 21 11.5836 21C11.587 21 11.5905 21 11.594 21C11.5975 21 11.601 21 11.6044 21C11.6079 21 11.6114 21 11.6149 21C11.6184 21 11.6219 21 11.6253 21C11.6288 21 11.6323 21 11.6358 21C11.6393 21 11.6428 21 11.6463 21C11.6498 21 11.6532 21 11.6567 21C11.6602 21 11.6637 21 11.6672 21C11.6707 21 11.6742 21 11.6777 21C11.6812 21 11.6846 21 11.6881 21C11.6916 21 11.6951 21 11.6986 21C11.7021 21 11.7056 21 11.7091 21C11.7126 21 11.7161 21 11.7196 21C11.7231 21 11.7265 21 11.73 21C11.7335 21 11.737 21 11.7405 21C11.744 21 11.7475 21 11.751 21C11.7545 21 11.758 21 11.7615 21C11.765 21 11.7685 21 11.772 21C11.7755 21 11.779 21 11.7824 21C11.7859 21 11.7894 21 11.7929 21C11.7964 21 11.7999 21 11.8034 21C11.8069 21 11.8104 21 11.8139 21C11.8174 21 11.8209 21 11.8244 21C11.8279 21 11.8314 21 11.8349 21C11.8383 21 11.8418 21 11.8453 21C11.8488 21 11.8523 21 11.8558 21C11.8593 21 11.8628 21 11.8663 21C11.8698 21 11.8733 21 11.8768 21C11.8803 21 11.8837 21 11.8872 21C11.8907 21 11.8942 21 11.8977 21C11.9012 21 11.9047 21 11.9082 21C11.9117 21 11.9152 21 11.9186 21C11.9221 21 11.9256 21 11.9291 21C11.9326 21 11.9361 21 11.9396 21C11.9431 21 11.9465 21 11.95 21C11.9535 21 11.957 21 11.9605 21C11.964 21 11.9675 21 11.9709 21C11.9744 21 11.9779 21 11.9814 21C11.9849 21 11.9884 21 11.9918 21C11.9953 21 11.9988 21 12.0023 21C12.0058 21 12.0092 21 12.0127 21C12.0162 21 12.0197 21 12.0231 21C12.0266 21 12.0301 21 12.0336 21C12.037 21 12.0405 21 12.044 21C12.0475 21 12.0509 21 12.0544 21C12.0579 21 12.0614 21 12.0648 21C12.0683 21 12.0718 21 12.0752 21C12.0787 21 12.0822 21 12.0856 21C12.0891 21 12.0926 21 12.096 21C12.0995 21 12.103 21 12.1064 21C12.1099 21 12.1133 21 12.1168 21C12.1203 21 12.1237 21 12.1272 21C12.1306 21 12.1341 21 12.1375 21C12.141 21 12.1445 21 12.1479 21C12.1514 21 12.1548 21 12.1583 21C12.1617 21 12.1652 21 12.1686 21C12.1721 21 12.1755 21 12.1789 21C12.1824 21 12.1858 21 12.1893 21C12.1927 21 12.1962 21 12.1996 21C12.203 21 12.2065 21 12.2099 21C12.2134 21 12.2168 21 12.2202 21C12.2237 21 12.2271 21 12.2305 21C12.234 21 12.2374 21 12.2408 21C12.2442 21 12.2477 21 12.2511 21C12.2545 21 12.2579 21 12.2614 21C12.2648 21 12.2682 21 12.2716 21C12.275 21 12.2785 21 12.2819 21C12.2853 21 12.2887 21 12.2921 21C12.2955 21 12.2989 21 12.3024 21C12.3058 21 12.3092 21 12.3126 21C12.316 21 12.3194 21 12.3228 21C12.3262 21 12.3296 21 12.333 21C12.3364 21 12.3398 21 12.3432 21C12.3466 21 12.35 21 12.3534 21C12.3567 21 12.3601 21 12.3635 21C12.3669 21 12.3703 21 12.3737 21C12.3771 21 12.3804 21 12.3838 21C12.3872 21 12.3906 21 12.394 21C12.3973 21 12.4007 21 12.4041 21C12.4074 21 12.4108 21 12.4142 21C12.4175 21 12.4209 21 12.4243 21C12.4276 21 12.431 21 12.4344 21C12.4377 21 12.4411 21 12.4444 21C12.4478 21 12.4511 21 12.4545 21C12.4578 21 12.4612 21 12.4645 21C12.4679 21 12.4712 21 12.4746 21C12.4779 21 12.4812 21 12.4846 21C12.4879 21 12.4912 21 12.4946 21C12.4979 21 12.5012 21 12.5046 21C12.5079 21 12.5112 21 12.5145 21C12.5178 21 12.5212 21 12.5245 21C12.5278 21 12.5311 21 12.5344 21C12.5377 21 12.541 21 12.5443 21C12.5477 21 12.551 21 12.5543 21C12.5576 21 12.5609 21 12.5642 21C12.5674 21 12.5707 21 12.574 21C12.5773 21 12.5806 21 12.5839 21C12.5872 21 12.5905 21 12.5937 21C12.597 21 12.6003 21 12.6036 21C12.6068 21 12.6101 21 12.6134 21C12.6167 21 12.6199 21 12.6232 21C12.6265 21 12.6297 21 12.633 21C12.6362 21 12.6395 21 12.6427 21C12.646 21 12.6492 21 12.6525 21C12.6557 21 12.659 21 12.6622 21C12.6654 21 12.6687 21 12.6719 21C12.6751 21 12.6784 21 12.6816 21C12.6848 21 12.6881 21 12.6913 21C12.6945 21 12.6977 21 12.7009 21C12.7042 21 12.7074 21 12.7106 21C12.7138 21 12.717 21 12.7202 21C12.7234 21 12.7266 21 12.7298 21C12.733 21 12.7362 21 12.7394 21C12.7426 21 12.7457 21 12.7489 21C12.7521 21 12.7553 21 12.7585 21C12.7616 21 12.7648 21 12.768 21C12.7712 21 12.7743 21 12.7775 21C12.7807 21 12.7838 21 12.787 21C12.7901 21 12.7933 21 12.7964 21C12.7996 21 12.8027 21 12.8059 21C12.809 21 12.8121 21 12.8153 21C12.8184 21 12.8215 21 12.8247 21C12.8278 21 12.8309 21 12.8341 21C12.8372 21 12.8403 21 12.8434 21C12.8465 21 12.8496 21 12.8527 21C12.8558 21 12.8589 21 12.862 21C12.8651 21 12.8682 21 12.8713 21C12.8744 21 12.8775 21 12.8806 21C12.8837 21 12.8868 21 12.8898 21C12.8929 21 12.896 21 12.8991 21C12.9021 21 12.9052 21 12.9082 21C12.9113 21 12.9144 21 12.9174 21C12.9205 21 12.9235 21 12.9266 21C12.9296 21 12.9327 21 12.9357 21C12.9387 21 12.9418 21 12.9448 21C12.9478 21 12.9508 21 12.9539 21C12.9569 21 12.9599 21 12.9629 21C12.9659 21 12.9689 21 12.972 21C12.975 21 12.978 21 12.981 21C12.984 21 12.9869 21 12.9899 21C12.9929 21 12.9959 21 12.9989 21C13.0019 21 13.0048 21 13.0078 21C13.0108 21 13.0137 21 13.0167 21C13.0197 21 13.0226 21 13.0256 21C13.0285 21 13.0315 21 13.0344 21C13.0374 21 13.0403 21 13.0433 21C13.0462 21 13.0491 21 13.0521 21C13.055 21 13.0579 21 13.0608 21C13.0637 21 13.0667 21 13.0696 21C13.0725 21 13.0754 21 13.0783 21C13.0812 21 13.0841 21 13.087 21C13.0899 21 13.0928 21 13.0956 21C13.0985 21 13.1014 21 13.1043 21C13.1071 21 13.11 21 13.1129 21C13.1157 21 13.1186 21 13.1215 21C13.1243 21 13.1272 21 13.13 21C13.1328 21 13.1357 21 13.1385 21C13.1414 21 13.1442 21 13.147 21C13.1498 21 13.1527 21 13.1555 21C13.1583 21 13.1611 21 13.1639 21C13.1667 21 13.1695 21 13.1723 21C13.1751 21 13.1779 21 13.1807 21C13.1835 21 13.1863 21 13.189 21C13.1918 21 13.1946 21 13.1974 21C13.2001 21 13.2029 21 13.2056 21C13.2084 21 13.2111 21 13.2139 21C13.2166 21 13.2194 21 13.2221 21C13.2249 21 13.2276 21 13.2303 21C13.233 21 13.2358 21 13.2385 21C13.2412 21 13.2439 21 13.2466 21C13.2493 21 13.252 21 13.2547 21C13.2574 21 13.2601 21 13.2628 21C13.2654 21 13.2681 21 13.2708 21C13.2735 21 13.2761 21 13.2788 21C13.2815 21 13.2841 21 13.2868 21C13.2894 21 13.2921 21 13.2947 21C13.2974 21 13.3 21 13.3026 21C13.3052 21 13.3079 21 13.3105 21C13.3131 21 13.3157 21 13.3183 21C13.3209 21 13.3235 21 13.3261 21C13.3287 21 13.3313 21 13.3339 21C13.3365 21 13.3391 21 13.3416 21C13.3442 21 13.3468 21 13.3494 21C13.3519 21 13.3545 21 13.357 21C13.3596 21 13.3621 21 13.3647 21C13.3672 21 13.3697 21 13.3723 21C13.3748 21 13.3773 21 13.3798 21C13.3823 21 13.3849 21 13.3874 21C13.3899 21 13.3924 21 13.3949 21C13.3973 21 13.3998 21 13.4023 21C13.4048 21 13.4073 21 13.4097 21C13.4122 21 13.4147 21 13.4171 21C13.4196 21 13.422 21 13.4245 21C13.4269 21 13.4294 21 13.4318 21C13.4342 21 13.4367 21 13.4391 21C13.4415 21 13.4439 21 13.4463 21C13.4487 21 13.4511 21 13.4535 21C13.4559 21 13.4583 21 13.4607 21C13.4631 21 13.4655 21 13.4678 21C13.4702 21 13.4726 21 13.4749 21C13.4773 21 13.4796 21 13.482 21C13.4843 21 13.4867 21 13.489 21C13.4913 21 13.4937 21 13.496 21C13.4983 21 13.5006 21 13.5029 21C13.5052 21 13.5075 21 13.5098 21C13.5121 21 13.5144 21 13.5167 21C13.519 21 13.5212 21 13.5235 21C13.5258 21 13.528 21 13.5303 21C13.5326 21 13.5348 21 13.537 21C13.5393 21 13.5415 21 13.5438 21C13.546 21 13.5482 21 13.5504 21C13.5526 21 13.5548 21 13.557 21C13.5592 21 13.5614 21 13.5636 21C13.5658 21 13.568 21 13.5702 21C13.5724 21 13.5745 21 13.5767 21C13.5788 21 13.581 21 13.5832 21C13.5853 21 13.5874 21 13.5896 21C13.5917 21 13.5938 21 13.596 21C13.5981 21 13.6002 21 13.6023 21C13.6044 21 13.6065 21 13.6086 21C13.6107 21 13.6128 21 13.6149 21C13.6169 21 13.619 21 13.6211 21C13.6231 21 13.6252 21 13.6272 21C13.6293 21 13.6313 21 13.6334 21C13.6354 21 13.6374 21 13.6395 21C13.6415 21 13.6435 21 13.6455 21C13.6475 21 13.6495 21 13.6515 21C13.6535 21 13.6555 21 13.6575 21C13.6594 21 13.6614 21 13.6634 21C13.6653 21 13.6673 21 13.6692 21C13.6712 21 13.6731 21 13.6751 21C13.677 21 13.6789 21 13.6809 21C13.6828 21 13.6847 21 13.6866 21C13.6885 21 13.6904 21 13.6923 21C13.6942 21 13.6961 21 13.6979 21C13.6998 21 13.7017 21 13.7035 21C13.7054 21 13.7072 21 13.7091 21C13.7109 21 13.7128 21 13.7146 21C13.7164 21 13.7182 21 13.7201 21C13.7219 21 13.7237 21 13.7255 21C13.7273 21 13.7291 21 13.7309 21C13.7326 21 13.7344 21 13.7362 21C13.738 21 13.7397 21 13.7415 21C13.7432 21 13.745 21 13.7467 21C13.7484 21 13.7502 21 13.7519 21C13.7536 21 13.7553 21 13.757 21C13.7587 21 13.7604 21 13.7621 21C13.7638 21 13.7655 21 13.7672 21C13.7688 21 13.7705 21 13.7722 21C13.7738 21 13.7755 21 13.7771 21C13.7787 21 13.7804 21 13.782 21C13.7836 21 13.7852 21 13.7869 21C13.7885 21 13.7901 21 13.7917 21C13.7933 21 13.7948 21 13.7964 21C13.798 21 13.7996 21 13.8011 21C13.8027 21 13.8042 21 13.8058 21C13.8073 21 13.8089 21 13.8104 21C13.8119 21 13.8134 21 13.8149 21C13.8165 21 13.818 21 13.8194 21C13.8209 21 13.8224 21 13.8239 21C13.8254 21 13.8269 21 13.8283 21C13.8298 21 13.8312 21 13.8327 21C13.8341 21 13.8355 21 13.837 21C13.8384 21 13.8398 21 13.8412 21C13.8426 21 13.844 21 13.8454 21C13.8468 21 13.8482 21 13.8496 21C13.851 21 13.8523 21 13.8537 21C13.855 21 13.8564 21 13.8577 21C13.8591 21 13.8604 21 13.8617 21C13.863 21 13.8644 21 13.8657 21C13.867 21 13.8683 21 13.8696 21C13.8708 21 13.8721 21 13.8734 21C13.8747 21 13.8759 21 13.8772 21C13.8784 21 13.8797 21 13.8809 21C13.8822 21 13.8834 21 13.8846 21C13.8858 21 13.887 21 13.8882 21C13.8894 21 13.8906 21 13.8918 21C13.893 21 13.8941 21 13.8953 21C13.8965 21 13.8976 21 13.8988 21C13.8999 21 13.9011 21 13.9022 21C13.9033 21 13.9044 21 13.9055 21C13.9067 21 13.9078 21 13.9088 21C13.9099 21 13.911 21 13.9121 21C13.9132 21 13.9142 21 13.9153 21C13.9163 21 13.9174 21 13.9184 21C13.9195 21 13.9205 21 13.9215 21C13.9225 21 13.9235 21 13.9245 21C13.9255 21 13.9265 21 13.9275 21C13.9285 21 13.9294 21 13.9304 21C13.9314 21 13.9323 21 13.9333 21C13.9342 21 13.9351 21 13.9361 21C13.937 21 13.9379 21 13.9388 21C13.9397 21 13.9406 21 13.9415 21C13.9424 21 13.9432 21 13.9441 21C13.945 21 13.9458 21 13.9467 21C13.9475 21 13.9484 21 13.9492 21C13.95 21 13.9508 21 13.9516 21C13.9524 21 13.9532 21 13.954 21C13.9548 21 13.9556 21 13.9564 21C13.9571 21 13.9579 21 13.9587 21C13.9594 21 13.9601 21 13.9609 21C13.9616 21 13.9623 21 13.963 21C13.9637 21 13.9644 21 13.9651 21C13.9658 21 13.9665 21 13.9672 21C13.9679 21 13.9685 21 13.9692 21C13.9698 21 13.9705 21 13.9711 21C13.9717 21 13.9723 21 13.973 21C13.9736 21 13.9742 21 13.9748 21C13.9753 21 13.9759 21 13.9765 21C13.9771 21 13.9776 21 13.9782 21C13.9787 21 13.9793 21 13.9798 21C13.9803 21 13.9809 21 13.9814 21C13.9819 21 13.9824 21 13.9829 21C13.9834 21 13.9838 21 13.9843 21C13.9848 21 13.9852 21 13.9857 21C13.9861 21 13.9866 21 13.987 21C13.9874 21 13.9878 21 13.9882 21C13.9887 21 13.9891 21 13.9894 21C13.9898 21 13.9902 21 13.9906 21C13.9909 21 13.9913 21 13.9916 21C13.992 21 13.9923 21 13.9926 21C13.993 21 13.9933 21 13.9936 21C13.9939 21 13.9942 21 13.9944 21C13.9947 21 13.995 21 13.9953 21C13.9955 21 13.9958 21 13.996 21C13.9962 21 13.9965 21 13.9967 21C13.9969 21 13.9971 21 13.9973 21C13.9975 21 13.9977 21 13.9979 21C13.998 21 13.9982 21 13.9984 21C13.9985 21 13.9987 21 13.9988 21C13.9989 21 13.999 21 13.9991 21C13.9993 21 13.9994 21 13.9994 21C13.9995 21 13.9996 21 13.9997 21C13.9997 21 13.9998 21 13.9998 21C13.9999 21 13.9999 21 13.9999 21C14 21 14 21 14 19C14 17 14 17 13.9999 17C13.9999 17 13.9999 17 13.9998 17C13.9998 17 13.9997 17 13.9997 17C13.9996 17 13.9995 17 13.9994 17C13.9994 17 13.9993 17 13.9991 17C13.999 17 13.9989 17 13.9988 17C13.9987 17 13.9985 17 13.9984 17C13.9982 17 13.998 17 13.9979 17C13.9977 17 13.9975 17 13.9973 17C13.9971 17 13.9969 17 13.9967 17C13.9965 17 13.9962 17 13.996 17C13.9958 17 13.9955 17 13.9953 17C13.995 17 13.9947 17 13.9944 17C13.9942 17 13.9939 17 13.9936 17C13.9933 17 13.993 17 13.9926 17C13.9923 17 13.992 17 13.9916 17C13.9913 17 13.9909 17 13.9906 17C13.9902 17 13.9898 17 13.9894 17C13.9891 17 13.9887 17 13.9882 17C13.9878 17 13.9874 17 13.987 17C13.9866 17 13.9861 17 13.9857 17C13.9852 17 13.9848 17 13.9843 17C13.9838 17 13.9834 17 13.9829 17C13.9824 17 13.9819 17 13.9814 17C13.9809 17 13.9803 17 13.9798 17C13.9793 17 13.9787 17 13.9782 17C13.9776 17 13.9771 17 13.9765 17C13.9759 17 13.9753 17 13.9748 17C13.9742 17 13.9736 17 13.973 17C13.9723 17 13.9717 17 13.9711 17C13.9705 17 13.9698 17 13.9692 17C13.9685 17 13.9679 17 13.9672 17C13.9665 17 13.9658 17 13.9651 17C13.9644 17 13.9637 17 13.963 17C13.9623 17 13.9616 17 13.9609 17C13.9601 17 13.9594 17 13.9587 17C13.9579 17 13.9571 17 13.9564 17C13.9556 17 13.9548 17 13.954 17C13.9532 17 13.9524 17 13.9516 17C13.9508 17 13.95 17 13.9492 17C13.9484 17 13.9475 17 13.9467 17C13.9458 17 13.945 17 13.9441 17C13.9432 17 13.9424 17 13.9415 17C13.9406 17 13.9397 17 13.9388 17C13.9379 17 13.937 17 13.9361 17C13.9351 17 13.9342 17 13.9333 17C13.9323 17 13.9314 17 13.9304 17C13.9294 17 13.9285 17 13.9275 17C13.9265 17 13.9255 17 13.9245 17C13.9235 17 13.9225 17 13.9215 17C13.9205 17 13.9195 17 13.9184 17C13.9174 17 13.9163 17 13.9153 17C13.9142 17 13.9132 17 13.9121 17C13.911 17 13.9099 17 13.9088 17C13.9078 17 13.9067 17 13.9055 17C13.9044 17 13.9033 17 13.9022 17C13.9011 17 13.8999 17 13.8988 17C13.8976 17 13.8965 17 13.8953 17C13.8941 17 13.893 17 13.8918 17C13.8906 17 13.8894 17 13.8882 17C13.887 17 13.8858 17 13.8846 17C13.8834 17 13.8822 17 13.8809 17C13.8797 17 13.8784 17 13.8772 17C13.8759 17 13.8747 17 13.8734 17C13.8721 17 13.8708 17 13.8696 17C13.8683 17 13.867 17 13.8657 17C13.8644 17 13.863 17 13.8617 17C13.8604 17 13.8591 17 13.8577 17C13.8564 17 13.855 17 13.8537 17C13.8523 17 13.851 17 13.8496 17C13.8482 17 13.8468 17 13.8454 17C13.844 17 13.8426 17 13.8412 17C13.8398 17 13.8384 17 13.837 17C13.8355 17 13.8341 17 13.8327 17C13.8312 17 13.8298 17 13.8283 17C13.8269 17 13.8254 17 13.8239 17C13.8224 17 13.8209 17 13.8194 17C13.818 17 13.8165 17 13.8149 17C13.8134 17 13.8119 17 13.8104 17C13.8089 17 13.8073 17 13.8058 17C13.8042 17 13.8027 17 13.8011 17C13.7996 17 13.798 17 13.7964 17C13.7948 17 13.7933 17 13.7917 17C13.7901 17 13.7885 17 13.7869 17C13.7852 17 13.7836 17 13.782 17C13.7804 17 13.7787 17 13.7771 17C13.7755 17 13.7738 17 13.7722 17C13.7705 17 13.7688 17 13.7672 17C13.7655 17 13.7638 17 13.7621 17C13.7604 17 13.7587 17 13.757 17C13.7553 17 13.7536 17 13.7519 17C13.7502 17 13.7484 17 13.7467 17C13.745 17 13.7432 17 13.7415 17C13.7397 17 13.738 17 13.7362 17C13.7344 17 13.7326 17 13.7309 17C13.7291 17 13.7273 17 13.7255 17C13.7237 17 13.7219 17 13.7201 17C13.7182 17 13.7164 17 13.7146 17C13.7128 17 13.7109 17 13.7091 17C13.7072 17 13.7054 17 13.7035 17C13.7017 17 13.6998 17 13.6979 17C13.6961 17 13.6942 17 13.6923 17C13.6904 17 13.6885 17 13.6866 17C13.6847 17 13.6828 17 13.6809 17C13.6789 17 13.677 17 13.6751 17C13.6731 17 13.6712 17 13.6692 17C13.6673 17 13.6653 17 13.6634 17C13.6614 17 13.6594 17 13.6575 17C13.6555 17 13.6535 17 13.6515 17C13.6495 17 13.6475 17 13.6455 17C13.6435 17 13.6415 17 13.6395 17C13.6374 17 13.6354 17 13.6334 17C13.6313 17 13.6293 17 13.6272 17C13.6252 17 13.6231 17 13.6211 17C13.619 17 13.6169 17 13.6149 17C13.6128 17 13.6107 17 13.6086 17C13.6065 17 13.6044 17 13.6023 17C13.6002 17 13.5981 17 13.596 17C13.5938 17 13.5917 17 13.5896 17C13.5874 17 13.5853 17 13.5832 17C13.581 17 13.5788 17 13.5767 17C13.5745 17 13.5724 17 13.5702 17C13.568 17 13.5658 17 13.5636 17C13.5614 17 13.5592 17 13.557 17C13.5548 17 13.5526 17 13.5504 17C13.5482 17 13.546 17 13.5438 17C13.5415 17 13.5393 17 13.537 17C13.5348 17 13.5326 17 13.5303 17C13.528 17 13.5258 17 13.5235 17C13.5212 17 13.519 17 13.5167 17C13.5144 17 13.5121 17 13.5098 17C13.5075 17 13.5052 17 13.5029 17C13.5006 17 13.4983 17 13.496 17C13.4937 17 13.4913 17 13.489 17C13.4867 17 13.4843 17 13.482 17C13.4796 17 13.4773 17 13.4749 17C13.4726 17 13.4702 17 13.4678 17C13.4655 17 13.4631 17 13.4607 17C13.4583 17 13.4559 17 13.4535 17C13.4511 17 13.4487 17 13.4463 17C13.4439 17 13.4415 17 13.4391 17C13.4367 17 13.4342 17 13.4318 17C13.4294 17 13.4269 17 13.4245 17C13.422 17 13.4196 17 13.4171 17C13.4147 17 13.4122 17 13.4097 17C13.4073 17 13.4048 17 13.4023 17C13.3998 17 13.3973 17 13.3949 17C13.3924 17 13.3899 17 13.3874 17C13.3849 17 13.3823 17 13.3798 17C13.3773 17 13.3748 17 13.3723 17C13.3697 17 13.3672 17 13.3647 17C13.3621 17 13.3596 17 13.357 17C13.3545 17 13.3519 17 13.3494 17C13.3468 17 13.3442 17 13.3416 17C13.3391 17 13.3365 17 13.3339 17C13.3313 17 13.3287 17 13.3261 17C13.3235 17 13.3209 17 13.3183 17C13.3157 17 13.3131 17 13.3105 17C13.3079 17 13.3052 17 13.3026 17C13.3 17 13.2974 17 13.2947 17C13.2921 17 13.2894 17 13.2868 17C13.2841 17 13.2815 17 13.2788 17C13.2761 17 13.2735 17 13.2708 17C13.2681 17 13.2654 17 13.2628 17C13.2601 17 13.2574 17 13.2547 17C13.252 17 13.2493 17 13.2466 17C13.2439 17 13.2412 17 13.2385 17C13.2358 17 13.233 17 13.2303 17C13.2276 17 13.2249 17 13.2221 17C13.2194 17 13.2166 17 13.2139 17C13.2111 17 13.2084 17 13.2056 17C13.2029 17 13.2001 17 13.1974 17C13.1946 17 13.1918 17 13.189 17C13.1863 17 13.1835 17 13.1807 17C13.1779 17 13.1751 17 13.1723 17C13.1695 17 13.1667 17 13.1639 17C13.1611 17 13.1583 17 13.1555 17C13.1527 17 13.1498 17 13.147 17C13.1442 17 13.1414 17 13.1385 17C13.1357 17 13.1328 17 13.13 17C13.1272 17 13.1243 17 13.1215 17C13.1186 17 13.1157 17 13.1129 17C13.11 17 13.1071 17 13.1043 17C13.1014 17 13.0985 17 13.0956 17C13.0928 17 13.0899 17 13.087 17C13.0841 17 13.0812 17 13.0783 17C13.0754 17 13.0725 17 13.0696 17C13.0667 17 13.0637 17 13.0608 17C13.0579 17 13.055 17 13.0521 17C13.0491 17 13.0462 17 13.0433 17C13.0403 17 13.0374 17 13.0344 17C13.0315 17 13.0285 17 13.0256 17C13.0226 17 13.0197 17 13.0167 17C13.0137 17 13.0108 17 13.0078 17C13.0048 17 13.0019 17 12.9989 17C12.9959 17 12.9929 17 12.9899 17C12.9869 17 12.984 17 12.981 17C12.978 17 12.975 17 12.972 17C12.9689 17 12.9659 17 12.9629 17C12.9599 17 12.9569 17 12.9539 17C12.9508 17 12.9478 17 12.9448 17C12.9418 17 12.9387 17 12.9357 17C12.9327 17 12.9296 17 12.9266 17C12.9235 17 12.9205 17 12.9174 17C12.9144 17 12.9113 17 12.9082 17C12.9052 17 12.9021 17 12.8991 17C12.896 17 12.8929 17 12.8898 17C12.8868 17 12.8837 17 12.8806 17C12.8775 17 12.8744 17 12.8713 17C12.8682 17 12.8651 17 12.862 17C12.8589 17 12.8558 17 12.8527 17C12.8496 17 12.8465 17 12.8434 17C12.8403 17 12.8372 17 12.8341 17C12.8309 17 12.8278 17 12.8247 17C12.8215 17 12.8184 17 12.8153 17C12.8121 17 12.809 17 12.8059 17C12.8027 17 12.7996 17 12.7964 17C12.7933 17 12.7901 17 12.787 17C12.7838 17 12.7807 17 12.7775 17C12.7743 17 12.7712 17 12.768 17C12.7648 17 12.7616 17 12.7585 17C12.7553 17 12.7521 17 12.7489 17C12.7457 17 12.7426 17 12.7394 17C12.7362 17 12.733 17 12.7298 17C12.7266 17 12.7234 17 12.7202 17C12.717 17 12.7138 17 12.7106 17C12.7074 17 12.7042 17 12.7009 17C12.6977 17 12.6945 17 12.6913 17C12.6881 17 12.6848 17 12.6816 17C12.6784 17 12.6751 17 12.6719 17C12.6687 17 12.6654 17 12.6622 17C12.659 17 12.6557 17 12.6525 17C12.6492 17 12.646 17 12.6427 17C12.6395 17 12.6362 17 12.633 17C12.6297 17 12.6265 17 12.6232 17C12.6199 17 12.6167 17 12.6134 17C12.6101 17 12.6068 17 12.6036 17C12.6003 17 12.597 17 12.5937 17C12.5905 17 12.5872 17 12.5839 17C12.5806 17 12.5773 17 12.574 17C12.5707 17 12.5674 17 12.5642 17C12.5609 17 12.5576 17 12.5543 17C12.551 17 12.5477 17 12.5443 17C12.541 17 12.5377 17 12.5344 17C12.5311 17 12.5278 17 12.5245 17C12.5212 17 12.5178 17 12.5145 17C12.5112 17 12.5079 17 12.5046 17C12.5012 17 12.4979 17 12.4946 17C12.4912 17 12.4879 17 12.4846 17C12.4812 17 12.4779 17 12.4746 17C12.4712 17 12.4679 17 12.4645 17C12.4612 17 12.4578 17 12.4545 17C12.4511 17 12.4478 17 12.4444 17C12.4411 17 12.4377 17 12.4344 17C12.431 17 12.4276 17 12.4243 17C12.4209 17 12.4175 17 12.4142 17C12.4108 17 12.4074 17 12.4041 17C12.4007 17 12.3973 17 12.394 17C12.3906 17 12.3872 17 12.3838 17C12.3804 17 12.3771 17 12.3737 17C12.3703 17 12.3669 17 12.3635 17C12.3601 17 12.3567 17 12.3534 17C12.35 17 12.3466 17 12.3432 17C12.3398 17 12.3364 17 12.333 17C12.3296 17 12.3262 17 12.3228 17C12.3194 17 12.316 17 12.3126 17C12.3092 17 12.3058 17 12.3024 17C12.2989 17 12.2955 17 12.2921 17C12.2887 17 12.2853 17 12.2819 17C12.2785 17 12.275 17 12.2716 17C12.2682 17 12.2648 17 12.2614 17C12.2579 17 12.2545 17 12.2511 17C12.2477 17 12.2442 17 12.2408 17C12.2374 17 12.234 17 12.2305 17C12.2271 17 12.2237 17 12.2202 17C12.2168 17 12.2134 17 12.2099 17C12.2065 17 12.203 17 12.1996 17C12.1962 17 12.1927 17 12.1893 17C12.1858 17 12.1824 17 12.1789 17C12.1755 17 12.1721 17 12.1686 17C12.1652 17 12.1617 17 12.1583 17C12.1548 17 12.1514 17 12.1479 17C12.1445 17 12.141 17 12.1375 17C12.1341 17 12.1306 17 12.1272 17C12.1237 17 12.1203 17 12.1168 17C12.1133 17 12.1099 17 12.1064 17C12.103 17 12.0995 17 12.096 17C12.0926 17 12.0891 17 12.0856 17C12.0822 17 12.0787 17 12.0752 17C12.0718 17 12.0683 17 12.0648 17C12.0614 17 12.0579 17 12.0544 17C12.0509 17 12.0475 17 12.044 17C12.0405 17 12.037 17 12.0336 17C12.0301 17 12.0266 17 12.0231 17C12.0197 17 12.0162 17 12.0127 17C12.0092 17 12.0058 17 12.0023 17C11.9988 17 11.9953 17 11.9918 17C11.9884 17 11.9849 17 11.9814 17C11.9779 17 11.9744 17 11.9709 17C11.9675 17 11.964 17 11.9605 17C11.957 17 11.9535 17 11.95 17C11.9465 17 11.9431 17 11.9396 17C11.9361 17 11.9326 17 11.9291 17C11.9256 17 11.9221 17 11.9186 17C11.9152 17 11.9117 17 11.9082 17C11.9047 17 11.9012 17 11.8977 17C11.8942 17 11.8907 17 11.8872 17C11.8837 17 11.8803 17 11.8768 17C11.8733 17 11.8698 17 11.8663 17C11.8628 17 11.8593 17 11.8558 17C11.8523 17 11.8488 17 11.8453 17C11.8418 17 11.8383 17 11.8349 17C11.8314 17 11.8279 17 11.8244 17C11.8209 17 11.8174 17 11.8139 17C11.8104 17 11.8069 17 11.8034 17C11.7999 17 11.7964 17 11.7929 17C11.7894 17 11.7859 17 11.7824 17C11.779 17 11.7755 17 11.772 17C11.7685 17 11.765 17 11.7615 17C11.758 17 11.7545 17 11.751 17C11.7475 17 11.744 17 11.7405 17C11.737 17 11.7335 17 11.73 17C11.7265 17 11.7231 17 11.7196 17C11.7161 17 11.7126 17 11.7091 17C11.7056 17 11.7021 17 11.6986 17C11.6951 17 11.6916 17 11.6881 17C11.6846 17 11.6812 17 11.6777 17C11.6742 17 11.6707 17 11.6672 17C11.6637 17 11.6602 17 11.6567 17C11.6532 17 11.6498 17 11.6463 17C11.6428 17 11.6393 17 11.6358 17C11.6323 17 11.6288 17 11.6253 17C11.6219 17 11.6184 17 11.6149 17C11.6114 17 11.6079 17 11.6044 17C11.601 17 11.5975 17 11.594 17C11.5905 17 11.587 17 11.5836 17C11.5801 17 11.5766 17 11.5731 17C11.5696 17 11.5662 17 11.5627 17C11.5592 17 11.5557 17 11.5522 17C11.5488 17 11.5453 17 11.5418 17C11.5383 17 11.5349 17 11.5314 17C11.5279 17 11.5245 17 11.521 17C11.5175 17 11.514 17 11.5106 17C11.5071 17 11.5036 17 11.5002 17C11.4967 17 11.4932 17 11.4898 17C11.4863 17 11.4828 17 11.4794 17C11.4759 17 11.4725 17 11.469 17C11.4655 17 11.4621 17 11.4586 17C11.4551 17 11.4517 17 11.4482 17C11.4448 17 11.4413 17 11.4379 17C11.4344 17 11.431 17 11.4275 17C11.4241 17 11.4206 17 11.4172 17C11.4137 17 11.4103 17 11.4068 17C11.4034 17 11.3999 17 11.3965 17C11.393 17 11.3896 17 11.3861 17C11.3827 17 11.3793 17 11.3758 17C11.3724 17 11.3689 17 11.3655 17C11.3621 17 11.3586 17 11.3552 17C11.3518 17 11.3483 17 11.3449 17C11.3415 17 11.338 17 11.3346 17C11.3312 17 11.3278 17 11.3243 17C11.3209 17 11.3175 17 11.3141 17C11.3107 17 11.3072 17 11.3038 17C11.3004 17 11.297 17 11.2936 17C11.2902 17 11.2867 17 11.2833 17C11.2799 17 11.2765 17 11.2731 17C11.2697 17 11.2663 17 11.2629 17C11.2595 17 11.2561 17 11.2527 17C11.2493 17 11.2459 17 11.2425 17C11.2391 17 11.2357 17 11.2323 17C11.2289 17 11.2255 17 11.2221 17C11.2187 17 11.2153 17 11.212 17C11.2086 17 11.2052 17 11.2018 17C11.1984 17 11.195 17 11.1917 17C11.1883 17 11.1849 17 11.1815 17C11.1782 17 11.1748 17 11.1714 17C11.168 17 11.1647 17 11.1613 17C11.1579 17 11.1546 17 11.1512 17C11.1479 17 11.1445 17 11.1411 17C11.1378 17 11.1344 17 11.1311 17C11.1277 17 11.1244 17 11.121 17C11.1177 17 11.1143 17 11.111 17C11.1076 17 11.1043 17 11.101 17C11.0976 17 11.0943 17 11.091 17C11.0876 17 11.0843 17 11.081 17C11.0776 17 11.0743 17 11.071 17C11.0677 17 11.0643 17 11.061 17C11.0577 17 11.0544 17 11.0511 17C11.0478 17 11.0444 17 11.0411 17C11.0378 17 11.0345 17 11.0312 17C11.0279 17 11.0246 17 11.0213 17C11.018 17 11.0147 17 11.0114 17C11.0081 17 11.0048 17 11.0015 17C10.9982 17 10.995 17 10.9917 17C10.9884 17 10.9851 17 10.9818 17C10.9786 17 10.9753 17 10.972 17C10.9687 17 10.9655 17 10.9622 17C10.9589 17 10.9557 17 10.9524 17C10.9491 17 10.9459 17 10.9426 17C10.9394 17 10.9361 17 10.9329 17C10.9296 17 10.9264 17 10.9231 17C10.9199 17 10.9167 17 10.9134 17C10.9102 17 10.9069 17 10.9037 17C10.9005 17 10.8972 17 10.894 17C10.8908 17 10.8876 17 10.8844 17C10.8811 17 10.8779 17 10.8747 17C10.8715 17 10.8683 17 10.8651 17C10.8619 17 10.8587 17 10.8555 17C10.8523 17 10.8491 17 10.8459 17C10.8427 17 10.8395 17 10.8363 17C10.8331 17 10.8299 17 10.8267 17C10.8236 17 10.8204 17 10.8172 17C10.814 17 10.8109 17 10.8077 17C10.8045 17 10.8014 17 10.7982 17C10.795 17 10.7919 17 10.7887 17C10.7856 17 10.7824 17 10.7793 17C10.7761 17 10.773 17 10.7698 17C10.7667 17 10.7636 17 10.7604 17C10.7573 17 10.7542 17 10.751 17C10.7479 17 10.7448 17 10.7417 17C10.7386 17 10.7354 17 10.7323 17C10.7292 17 10.7261 17 10.723 17C10.7199 17 10.7168 17 10.7137 17C10.7106 17 10.7075 17 10.7044 17C10.7013 17 10.6983 17 10.6952 17C10.6921 17 10.689 17 10.6859 17C10.6829 17 10.6798 17 10.6767 17C10.6737 17 10.6706 17 10.6675 17C10.6645 17 10.6614 17 10.6584 17C10.6553 17 10.6523 17 10.6492 17C10.6462 17 10.6432 17 10.6401 17C10.6371 17 10.6341 17 10.631 17C10.628 17 10.625 17 10.622 17C10.6189 17 10.6159 17 10.6129 17C10.6099 17 10.6069 17 10.6039 17C10.6009 17 10.5979 17 10.5949 17C10.5919 17 10.5889 17 10.5859 17C10.5829 17 10.58 17 10.577 17C10.574 17 10.571 17 10.5681 17C10.5651 17 10.5621 17 10.5592 17C10.5562 17 10.5533 17 10.5503 17C10.5474 17 10.5444 17 10.5415 17C10.5385 17 10.5356 17 10.5326 17C10.5297 17 10.5268 17 10.5239 17C10.5209 17 10.518 17 10.5151 17C10.5122 17 10.5093 17 10.5064 17C10.5035 17 10.5006 17 10.4977 17C10.4948 17 10.4919 17 10.489 17C10.4861 17 10.4832 17 10.4803 17C10.4774 17 10.4746 17 10.4717 17C10.4688 17 10.466 17 10.4631 17C10.4602 17 10.4574 17 10.4545 17C10.4517 17 10.4488 17 10.446 17C10.4432 17 10.4403 17 10.4375 17C10.4347 17 10.4318 17 10.429 17C10.4262 17 10.4234 17 10.4205 17C10.4177 17 10.4149 17 10.4121 17C10.4093 17 10.4065 17 10.4037 17C10.4009 17 10.3981 17 10.3954 17C10.3926 17 10.3898 17 10.387 17C10.3843 17 10.3815 17 10.3787 17C10.376 17 10.3732 17 10.3704 17C10.3677 17 10.3649 17 10.3622 17C10.3595 17 10.3567 17 10.354 17C10.3513 17 10.3485 17 10.3458 17C10.3431 17 10.3404 17 10.3377 17C10.3349 17 10.3322 17 10.3295 17C10.3268 17 10.3241 17 10.3214 17C10.3188 17 10.3161 17 10.3134 17C10.3107 17 10.308 17 10.3054 17C10.3027 17 10.3 17 10.2974 17C10.2947 17 10.2921 17 10.2894 17C10.2868 17 10.2841 17 10.2815 17C10.2788 17 10.2762 17 10.2736 17C10.271 17 10.2683 17 10.2657 17C10.2631 17 10.2605 17 10.2579 17C10.2553 17 10.2527 17 10.2501 17C10.2475 17 10.2449 17 10.2423 17C10.2398 17 10.2372 17 10.2346 17C10.232 17 10.2295 17 10.2269 17C10.2244 17 10.2218 17 10.2193 17C10.2167 17 10.2142 17 10.2116 17C10.2091 17 10.2066 17 10.204 17C10.2015 17 10.199 17 10.1965 17C10.194 17 10.1915 17 10.189 17C10.1865 17 10.184 17 10.1815 17C10.179 17 10.1765 17 10.174 17C10.1716 17 10.1691 17 10.1666 17C10.1642 17 10.1617 17 10.1592 17C10.1568 17 10.1543 17 10.1519 17C10.1495 17 10.147 17 10.1446 17C10.1422 17 10.1397 17 10.1373 17C10.1349 17 10.1325 17 10.1301 17C10.1277 17 10.1253 17 10.1229 17C10.1205 17 10.1181 17 10.1157 17C10.1134 17 10.111 17 10.1086 17C10.1063 17 10.1039 17 10.1015 17C10.0992 17 10.0968 17 10.0945 17C10.0922 17 10.0898 17 10.0875 17C10.0852 17 10.0828 17 10.0805 17C10.0782 17 10.0759 17 10.0736 17C10.0713 17 10.069 17 10.0667 17C10.0644 17 10.0621 17 10.0599 17C10.0576 17 10.0553 17 10.053 17C10.0508 17 10.0485 17 10.0463 17C10.044 17 10.0418 17 10.0395 17C10.0373 17 10.0351 17 10.0328 17C10.0306 17 10.0284 17 10.0262 17C10.024 17 10.0218 17 10.0196 17C10.0174 17 10.0152 17 10.013 17C10.0108 17 10.0086 17 10.0065 17C10.0043 17 10.0021 17 9.99997 17V21Z" fill="#7F838E" mask="url(#path-1-inside-1)"/>
<path d="M19 17V18C19.3688 18 19.7077 17.797 19.8817 17.4719C20.0557 17.1467 20.0366 16.7522 19.8321 16.4453L19 17ZM17 14H16C16 14.1974 16.0584 14.3904 16.1679 14.5547L17 14ZM7 14L7.83205 14.5547C7.94156 14.3904 8 14.1974 8 14H7ZM5 17L4.16795 16.4453C3.96338 16.7522 3.94431 17.1467 4.11833 17.4719C4.29234 17.797 4.6312 18 5 18V17ZM8 10C8 7.79086 9.79086 6 12 6V4C8.68629 4 6 6.68629 6 10H8ZM12 6C14.2091 6 16 7.79086 16 10H18C18 6.68629 15.3137 4 12 4V6ZM7 18H17V16H7V18ZM17 18H19V16H17V18ZM18 14V10H16V14H18ZM19.8321 16.4453L17.8321 13.4453L16.1679 14.5547L18.1679 17.5547L19.8321 16.4453ZM6 10V14H8V10H6ZM6.16795 13.4453L4.16795 16.4453L5.83205 17.5547L7.83205 14.5547L6.16795 13.4453ZM5 18H7V16H5V18ZM13 5V2H11V5H13Z" fill="#7F838E"/>
</svg>
