<svg width="24" height="24" viewBox="0 0 24 24" fill="none" xmlns="http://www.w3.org/2000/svg">
<path fill-rule="evenodd" clip-rule="evenodd" d="M12 22C17.5228 22 22 17.5228 22 12C22 6.47715 17.5228 2 12 2C6.47715 2 2 6.47715 2 12C2 17.5228 6.47715 22 12 22ZM12 5C12.5523 5 13 5.44772 13 6V14C13 14.5523 12.5523 15 12 15C11.4477 15 11 14.5523 11 14V6C11 5.44772 11.4477 5 12 5ZM13.25 17.25C13.25 17.9403 12.6903 18.5 12 18.5C11.3097 18.5 10.75 17.9403 10.75 17.25C10.75 16.5597 11.3097 16 12 16C12.6903 16 13.25 16.5597 13.25 17.25Z" fill="#7F838E"/>
</svg>
