<svg width="24" height="24" viewBox="0 0 24 24" fill="none" xmlns="http://www.w3.org/2000/svg">
<path d="M16.6417 18.3208L13.8451 15.5242C12.6385 16.0735 11.3257 16.3504 10.0001 16.335C8.63331 16.352 7.28068 16.057 6.04508 15.4725C5.08732 15.0052 4.22728 14.3598 3.51091 13.5708C2.75049 12.7557 2.15283 11.8028 1.75008 10.7633L1.66675 10.5017L1.75425 10.2383C2.35659 8.70191 3.3703 7.36097 4.68425 6.3625L2.50008 4.17833L3.67758 3.00166L17.8184 17.1425L16.6434 18.3208H16.6417ZM5.86342 7.5425C4.79835 8.28909 3.95729 9.31225 3.43091 10.5017C4.5596 13.1058 7.16331 14.7572 10.0001 14.6683C10.8749 14.6755 11.7447 14.5346 12.5726 14.2517L11.0726 12.7517C10.7387 12.9153 10.3719 13.0008 10.0001 13.0017C8.62296 12.993 7.50872 11.8788 7.50008 10.5017C7.50048 10.129 7.58599 9.76129 7.75008 9.42666L5.86342 7.5425ZM16.5434 13.51L15.3834 12.3508C15.8714 11.7991 16.2714 11.1754 16.5692 10.5017C15.442 7.89631 12.8374 6.24423 10.0001 6.335C9.79425 6.335 9.58758 6.3425 9.38758 6.35666L7.91675 4.88416C8.60144 4.73769 9.29991 4.66533 10.0001 4.66833C11.3668 4.65137 12.7195 4.94635 13.9551 5.53083C14.9129 5.99811 15.7729 6.64349 16.4892 7.4325C17.2493 8.24663 17.847 9.19839 18.2501 10.2367L18.3334 10.5017L18.2459 10.765C17.8558 11.7801 17.2785 12.7129 16.5442 13.515L16.5434 13.51Z" fill="#7F838E"/>
</svg>
