<svg width="24" height="24" viewBox="0 0 24 24" fill="none" xmlns="http://www.w3.org/2000/svg">
<path d="M22.7286 2.31508C23.0103 2.61476 23.0798 3.05636 22.9037 3.42806L13.9037 22.4281C13.7335 22.7874 13.3665 23.0118 12.9691 22.9995C12.5716 22.9872 12.2192 22.7406 12.0715 22.3714L9.14606 15.0576L16.8501 8.4985C17.0603 8.31949 17.0857 8.00392 16.9067 7.79366C16.7276 7.5834 16.4121 7.55807 16.2018 7.73708L8.43103 14.353L1.66435 11.942C1.2726 11.8024 1.00813 11.4349 1.00018 11.0191C0.992238 10.6033 1.24247 10.226 1.62861 10.0715L21.6286 2.0715C22.0105 1.91875 22.4469 2.01539 22.7286 2.31508Z" fill="#7F838E"/>
</svg>
