<svg width="24" height="24" viewBox="0 0 24 24" fill="none" xmlns="http://www.w3.org/2000/svg">
<path fill-rule="evenodd" clip-rule="evenodd" d="M9.97844 5.84894L10.4435 3H13.5565L14.0216 5.84894C14.8827 6.12917 15.6646 6.58356 16.3254 7.17031L19.016 6.15204L20.5725 8.84801L18.3598 10.6572C18.4517 11.0904 18.5 11.5396 18.5 12C18.5 12.4604 18.4517 12.9097 18.3598 13.3429L20.5725 15.152L19.016 17.848L16.3292 16.8263C15.6677 17.4147 14.8843 17.8703 14.0216 18.1511L13.5565 21H10.4435L9.97844 18.1511C9.11734 17.8708 8.33539 17.4164 7.67462 16.8297L4.98401 17.848L3.42749 15.152L5.64017 13.3428C5.54831 12.9096 5.49999 12.4604 5.49999 12C5.49999 11.5396 5.54831 11.0903 5.64017 10.6571L3.42749 8.84796L4.98401 6.15199L7.67077 7.17374C8.33235 6.58533 9.11566 6.12971 9.97844 5.84894ZM12 15C13.6569 15 15 13.6569 15 12C15 10.3431 13.6569 9 12 9C10.3431 9 9 10.3431 9 12C9 13.6569 10.3431 15 12 15Z" fill="#7F838E"/>
</svg>
