<svg width="24" height="24" viewBox="0 0 24 24" fill="none" xmlns="http://www.w3.org/2000/svg">
<path fill-rule="evenodd" clip-rule="evenodd" d="M6 21C5.44772 21 5 20.5523 5 20V4C5 3.44772 5.44772 3 6 3H14V8H19L19 20C19 20.5523 18.5523 21 18 21H6ZM10.3105 9.99666V15.5658V16.9028L15.2481 13.4497L10.3105 9.99666Z" fill="#7F838E"/>
<path d="M14 3H14.5C14.5 2.72386 14.2761 2.5 14 2.5V3ZM14 8H13.5C13.5 8.27614 13.7239 8.5 14 8.5V8ZM19 8H19.5C19.5 7.86739 19.4473 7.74022 19.3536 7.64645C19.2598 7.55268 19.1326 7.5 19 7.5V8ZM19 20H18.5H19ZM10.3105 9.99666L10.597 9.58692C10.4443 9.48009 10.2448 9.4671 10.0795 9.55322C9.91417 9.63934 9.81048 9.81026 9.81048 9.99666H10.3105ZM10.3105 16.9028H9.81048C9.81048 17.0892 9.91417 17.2601 10.0795 17.3462C10.2448 17.4323 10.4443 17.4193 10.597 17.3125L10.3105 16.9028ZM15.2481 13.4497L15.5346 13.8595C15.6684 13.7659 15.7481 13.6129 15.7481 13.4497C15.7481 13.2865 15.6684 13.1335 15.5346 13.04L15.2481 13.4497ZM4.5 20C4.5 20.8284 5.17157 21.5 6 21.5V20.5C5.72386 20.5 5.5 20.2761 5.5 20H4.5ZM4.5 4V20H5.5V4H4.5ZM6 2.5C5.17157 2.5 4.5 3.17157 4.5 4H5.5C5.5 3.72386 5.72386 3.5 6 3.5V2.5ZM14 2.5H6V3.5H14V2.5ZM14.5 8V3H13.5V8H14.5ZM19 7.5H14V8.5H19V7.5ZM19.5 20L19.5 8H18.5L18.5 20H19.5ZM18 21.5C18.8284 21.5 19.5 20.8284 19.5 20H18.5C18.5 20.2761 18.2761 20.5 18 20.5V21.5ZM6 21.5H18V20.5H6V21.5ZM10.8105 15.5658V9.99666H9.81048V15.5658H10.8105ZM10.8105 16.9028V15.5658H9.81048V16.9028H10.8105ZM14.9615 13.04L10.0239 16.493L10.597 17.3125L15.5346 13.8595L14.9615 13.04ZM10.0239 10.4064L14.9615 13.8595L15.5346 13.04L10.597 9.58692L10.0239 10.4064ZM19.3536 7.64645L14.3536 2.64645L13.6464 3.35355L18.6464 8.35355L19.3536 7.64645Z" fill="#7F838E"/>
</svg>
