<svg width="24" height="24" viewBox="0 0 24 24" fill="none" xmlns="http://www.w3.org/2000/svg">
<path d="M3.53463 9.46946C8.75784 5.27729 16.369 5.524 21.3121 10.2085C21.713 10.5884 22.3459 10.5714 22.7258 10.1705C23.1057 9.76962 23.0887 9.13669 22.6879 8.75679C17.013 3.37888 8.27925 3.0969 2.28277 7.9097C1.95035 8.17652 1.62646 8.45891 1.31213 8.75679C0.911266 9.13669 0.894267 9.76963 1.27417 10.1705C1.65407 10.5714 2.287 10.5884 2.68787 10.2085C2.96235 9.94835 3.24487 9.70204 3.53463 9.46946Z" fill="black" fill-opacity="0.65"/>
<path d="M19.7071 12.1924C15.4506 7.93585 8.54941 7.93585 4.29289 12.1924C3.90237 12.5829 3.90237 13.2161 4.29289 13.6066C4.68341 13.9971 5.31658 13.9971 5.7071 13.6066C9.18258 10.1311 14.8174 10.1311 18.2929 13.6066C18.6834 13.9971 19.3166 13.9971 19.7071 13.6066C20.0976 13.2161 20.0976 12.5829 19.7071 12.1924Z" fill="black" fill-opacity="0.65"/>
<path d="M16.7071 15.4497C14.1074 12.85 9.89256 12.85 7.29289 15.4497C6.90237 15.8402 6.90237 16.4734 7.29289 16.8639C7.68341 17.2545 8.31658 17.2545 8.7071 16.8639C10.5257 15.0453 13.4743 15.0453 15.2929 16.8639C15.6834 17.2545 16.3166 17.2545 16.7071 16.8639C17.0976 16.4734 17.0976 15.8402 16.7071 15.4497Z" fill="black" fill-opacity="0.65"/>
<path d="M13.25 18.75C13.25 19.4403 12.6904 20 12 20C11.3097 20 10.75 19.4403 10.75 18.75C10.75 18.0596 11.3097 17.5 12 17.5C12.6904 17.5 13.25 18.0596 13.25 18.75Z" fill="black" fill-opacity="0.65"/>
</svg>
