<svg width="12" height="12" viewBox="0 0 12 12" fill="none" xmlns="http://www.w3.org/2000/svg">
<path fill-rule="evenodd" clip-rule="evenodd" d="M5.99996 11.8333C9.22162 11.8333 11.8333 9.22162 11.8333 5.99996C11.8333 2.7783 9.22162 0.166626 5.99996 0.166626C2.7783 0.166626 0.166626 2.7783 0.166626 5.99996C0.166626 9.22162 2.7783 11.8333 5.99996 11.8333ZM5.99996 1.91663C6.32212 1.91663 6.58329 2.17779 6.58329 2.49996V7.16663C6.58329 7.48879 6.32212 7.74996 5.99996 7.74996C5.67779 7.74996 5.41663 7.48879 5.41663 7.16663V2.49996C5.41663 2.17779 5.67779 1.91663 5.99996 1.91663ZM6.72913 9.06246C6.72913 9.46516 6.40266 9.79163 5.99996 9.79163C5.59725 9.79163 5.27079 9.46516 5.27079 9.06246C5.27079 8.65975 5.59725 8.33329 5.99996 8.33329C6.40266 8.33329 6.72913 8.65975 6.72913 9.06246Z" fill="#FF9800"/>
</svg>
