<svg width="25" height="25" viewBox="0 0 25 25" fill="none" xmlns="http://www.w3.org/2000/svg">
<path d="M3.57956 10.0154C8.80276 5.82319 16.414 6.0699 21.3571 10.7544C21.7579 11.1343 22.3909 11.1173 22.7708 10.7164C23.1507 10.3155 23.1337 9.68259 22.7328 9.30269C17.058 3.92477 8.32417 3.6428 2.32769 8.4556C1.99527 8.72242 1.67138 9.00481 1.35706 9.30269C0.956188 9.68259 0.939189 10.3155 1.31909 10.7164C1.69899 11.1173 2.33192 11.1343 2.73279 10.7544C3.00727 10.4942 3.28979 10.2479 3.57956 10.0154Z" fill="#2475FF"/>
<path d="M19.752 12.7383C15.4955 8.48175 8.59434 8.48175 4.33781 12.7383C3.94729 13.1288 3.94729 13.762 4.33781 14.1525C4.72834 14.543 5.3615 14.543 5.75203 14.1525C9.2275 10.677 14.8623 10.677 18.3378 14.1525C18.7283 14.543 19.3615 14.543 19.752 14.1525C20.1425 13.762 20.1425 13.1288 19.752 12.7383Z" fill="#2475FF"/>
<path d="M16.752 15.9956C14.1524 13.3959 9.93749 13.3959 7.33781 15.9956C6.94729 16.3861 6.94729 17.0193 7.33781 17.4098C7.72834 17.8004 8.3615 17.8004 8.75203 17.4098C10.5707 15.5912 13.5192 15.5912 15.3378 17.4098C15.7283 17.8004 16.3615 17.8004 16.752 17.4098C17.1426 17.0193 17.1426 16.3861 16.752 15.9956Z" fill="#2475FF"/>
<path d="M13.2949 19.2959C13.2949 19.9862 12.7353 20.5459 12.0449 20.5459C11.3546 20.5459 10.7949 19.9862 10.7949 19.2959C10.7949 18.6055 11.3546 18.0459 12.0449 18.0459C12.7353 18.0459 13.2949 18.6055 13.2949 19.2959Z" fill="#2475FF"/>
</svg>
