<svg width="22" height="16" viewBox="0 0 22 16" fill="none" xmlns="http://www.w3.org/2000/svg">
<path d="M21.5443 3.19049H20.3101V1.27613H18.4575V0H21.5443V3.19049Z" fill="white"/>
<path d="M1.71437 3.19049H0.480225V0H3.567V1.27613H1.71437V3.19049Z" fill="white"/>
<path d="M21.5443 16H18.4575V14.7239H20.3101V12.8096H21.5443V16Z" fill="white"/>
<path d="M3.567 16H0.480225V12.8096H1.71437V14.7239H3.567V16Z" fill="white"/>
<path d="M3.12402 2.46069H4.35817V13.5393H3.12402V2.46069Z" fill="white"/>
<path d="M5.54761 2.46069H6.78176V10.9869H5.54761V2.46069Z" fill="white"/>
<path d="M7.97144 2.46069H9.20558V10.9869H7.97144V2.46069Z" fill="white"/>
<path d="M10.395 2.46069H11.6292V13.5393H10.395V2.46069Z" fill="white"/>
<path d="M12.8186 2.46069H14.0528V13.5393H12.8186V2.46069Z" fill="white"/>
<path d="M17.666 2.46069H18.9002V13.5393H17.666V2.46069Z" fill="white"/>
<path d="M15.2424 2.46069H16.4766V10.9869H15.2424V2.46069Z" fill="white"/>
<path d="M5.54761 12.2632H6.78176V13.5394H5.54761V12.2632Z" fill="white"/>
<path d="M7.97144 12.2632H9.20558V13.5394H7.97144V12.2632Z" fill="white"/>
<path d="M15.2424 12.2632H16.4766V13.5394H15.2424V12.2632Z" fill="white"/>
</svg>
